<svg width="141" height="31" viewBox="0 0 141 31" fill="none" xmlns="http://www.w3.org/2000/svg">
<path d="M0.201705 30V0.90909H12.2188C14.3968 0.90909 16.2765 1.33523 17.858 2.1875C19.4489 3.0303 20.6752 4.20928 21.5369 5.72443C22.3987 7.23011 22.8295 8.98201 22.8295 10.9801C22.8295 12.9877 22.3892 14.7443 21.5085 16.25C20.6373 17.7462 19.392 18.9062 17.7727 19.7301C16.1534 20.554 14.2311 20.9659 12.0057 20.9659H4.59091V15.4261H10.6989C11.7595 15.4261 12.6449 15.2415 13.3551 14.8722C14.0748 14.5028 14.6193 13.9867 14.9886 13.3239C15.358 12.6515 15.5426 11.8703 15.5426 10.9801C15.5426 10.0805 15.358 9.30398 14.9886 8.65057C14.6193 7.98769 14.0748 7.47633 13.3551 7.11648C12.6354 6.75663 11.75 6.5767 10.6989 6.5767H7.23295V30H0.201705ZM53.7528 15.4545C53.7528 18.6553 53.1373 21.3684 51.9062 23.5938C50.6752 25.8191 49.0085 27.5095 46.9062 28.6648C44.8134 29.8201 42.465 30.3977 39.8608 30.3977C37.2472 30.3977 34.8939 29.8153 32.8011 28.6506C30.7083 27.4858 29.0464 25.7955 27.8153 23.5795C26.5938 21.3542 25.983 18.6458 25.983 15.4545C25.983 12.2538 26.5938 9.54072 27.8153 7.31534C29.0464 5.08996 30.7083 3.39962 32.8011 2.24432C34.8939 1.08901 37.2472 0.511363 39.8608 0.511363C42.465 0.511363 44.8134 1.08901 46.9062 2.24432C49.0085 3.39962 50.6752 5.08996 51.9062 7.31534C53.1373 9.54072 53.7528 12.2538 53.7528 15.4545ZM46.5653 15.4545C46.5653 13.5606 46.2955 11.9602 45.7557 10.6534C45.2254 9.34659 44.4583 8.35701 43.4545 7.68466C42.4602 7.01231 41.2623 6.67614 39.8608 6.67614C38.4688 6.67614 37.2708 7.01231 36.267 7.68466C35.2633 8.35701 34.4915 9.34659 33.9517 10.6534C33.4214 11.9602 33.1562 13.5606 33.1562 15.4545C33.1562 17.3485 33.4214 18.9489 33.9517 20.2557C34.4915 21.5625 35.2633 22.5521 36.267 23.2244C37.2708 23.8968 38.4688 24.233 39.8608 24.233C41.2623 24.233 42.4602 23.8968 43.4545 23.2244C44.4583 22.5521 45.2254 21.5625 45.7557 20.2557C46.2955 18.9489 46.5653 17.3485 46.5653 15.4545ZM85.3153 15.4545C85.3153 18.6553 84.6998 21.3684 83.4688 23.5938C82.2377 25.8191 80.571 27.5095 78.4688 28.6648C76.3759 29.8201 74.0275 30.3977 71.4233 30.3977C68.8097 30.3977 66.4564 29.8153 64.3636 28.6506C62.2708 27.4858 60.6089 25.7955 59.3778 23.5795C58.1562 21.3542 57.5455 18.6458 57.5455 15.4545C57.5455 12.2538 58.1562 9.54072 59.3778 7.31534C60.6089 5.08996 62.2708 3.39962 64.3636 2.24432C66.4564 1.08901 68.8097 0.511363 71.4233 0.511363C74.0275 0.511363 76.3759 1.08901 78.4688 2.24432C80.571 3.39962 82.2377 5.08996 83.4688 7.31534C84.6998 9.54072 85.3153 12.2538 85.3153 15.4545ZM78.1278 15.4545C78.1278 13.5606 77.858 11.9602 77.3182 10.6534C76.7879 9.34659 76.0208 8.35701 75.017 7.68466C74.0227 7.01231 72.8248 6.67614 71.4233 6.67614C70.0313 6.67614 68.8333 7.01231 67.8295 7.68466C66.8258 8.35701 66.054 9.34659 65.5142 10.6534C64.9839 11.9602 64.7188 13.5606 64.7188 15.4545C64.7188 17.3485 64.9839 18.9489 65.5142 20.2557C66.054 21.5625 66.8258 22.5521 67.8295 23.2244C68.8333 23.8968 70.0313 24.233 71.4233 24.233C72.8248 24.233 74.0227 23.8968 75.017 23.2244C76.0208 22.5521 76.7879 21.5625 77.3182 20.2557C77.858 18.9489 78.1278 17.3485 78.1278 15.4545ZM89.4205 30V0.90909H109.278V6.61932H96.4517V12.5852H108.014V18.3097H96.4517V30H89.4205ZM140.276 15.4545C140.276 18.6553 139.661 21.3684 138.43 23.5938C137.199 25.8191 135.532 27.5095 133.43 28.6648C131.337 29.8201 128.988 30.3977 126.384 30.3977C123.771 30.3977 121.417 29.8153 119.325 28.6506C117.232 27.4858 115.57 25.7955 114.339 23.5795C113.117 21.3542 112.506 18.6458 112.506 15.4545C112.506 12.2538 113.117 9.54072 114.339 7.31534C115.57 5.08996 117.232 3.39962 119.325 2.24432C121.417 1.08901 123.771 0.511363 126.384 0.511363C128.988 0.511363 131.337 1.08901 133.43 2.24432C135.532 3.39962 137.199 5.08996 138.43 7.31534C139.661 9.54072 140.276 12.2538 140.276 15.4545ZM133.089 15.4545C133.089 13.5606 132.819 11.9602 132.279 10.6534C131.749 9.34659 130.982 8.35701 129.978 7.68466C128.984 7.01231 127.786 6.67614 126.384 6.67614C124.992 6.67614 123.794 7.01231 122.79 7.68466C121.787 8.35701 121.015 9.34659 120.475 10.6534C119.945 11.9602 119.68 13.5606 119.68 15.4545C119.68 17.3485 119.945 18.9489 120.475 20.2557C121.015 21.5625 121.787 22.5521 122.79 23.2244C123.794 23.8968 124.992 24.233 126.384 24.233C127.786 24.233 128.984 23.8968 129.978 23.2244C130.982 22.5521 131.749 21.5625 132.279 20.2557C132.819 18.9489 133.089 17.3485 133.089 15.4545Z" fill="white"/>
</svg>
